<svg width="40" height="40" viewBox="0 0 40 40" fill="none" xmlns="http://www.w3.org/2000/svg">
<path d="M30.4507 22.5691L22.569 30.4508C22.357 30.6616 22.1186 30.8197 21.8535 30.9253C21.5885 31.0307 21.3243 31.0834 21.0608 31.0834C20.7971 31.0834 20.5334 31.0307 20.2698 30.9253C20.0061 30.8197 19.7689 30.6616 19.5581 30.4508L9.53149 20.4352C9.33257 20.2439 9.18032 20.0193 9.07474 19.7615C8.96935 19.5037 8.91666 19.2324 8.91666 18.9477V11.0369C8.91666 10.4539 9.12267 9.95479 9.5347 9.53946C9.94692 9.12432 10.4476 8.91675 11.0368 8.91675H18.9477C19.2294 8.91675 19.5023 8.97391 19.7664 9.08825C20.0306 9.20239 20.2596 9.3561 20.4532 9.54937L30.4507 19.5649C30.6644 19.7769 30.8202 20.0152 30.9182 20.2801C31.0162 20.5451 31.0652 20.8108 31.0652 21.0772C31.0652 21.3436 31.0162 21.6055 30.9182 21.863C30.8202 22.1206 30.6644 22.356 30.4507 22.5691ZM13.6125 15.0753C14.0193 15.0753 14.3648 14.9335 14.6491 14.65C14.9332 14.3665 15.0752 14.0222 15.0752 13.617C15.0752 13.2088 14.9334 12.8619 14.6499 12.5763C14.3664 12.2905 14.0221 12.1475 13.6169 12.1475C13.2087 12.1475 12.8618 12.29 12.5762 12.5748C12.2904 12.8597 12.1474 13.2056 12.1474 13.6126C12.1474 14.0194 12.2899 14.3649 12.5747 14.6492C12.8596 14.9332 13.2055 15.0753 13.6125 15.0753ZM21.9159 25.3195L24.9808 22.1987C25.1721 22.0073 25.3216 21.7826 25.4294 21.5246C25.5371 21.2666 25.591 20.9873 25.591 20.6867C25.591 20.1078 25.3861 19.6093 24.9764 19.1913C24.5667 18.7732 24.0716 18.5642 23.4909 18.5642C23.1164 18.5642 22.7469 18.6675 22.3823 18.874C22.0175 19.0803 21.6123 19.4362 21.1667 19.9417C20.6732 19.4123 20.2537 19.0503 19.9084 18.8559C19.5633 18.6614 19.2079 18.5642 18.8424 18.5642C18.2618 18.5642 17.7666 18.7732 17.3569 19.1913C16.9472 19.6093 16.7424 20.1078 16.7424 20.6867C16.7424 20.9873 16.7962 21.2666 16.9039 21.5246C17.0117 21.7826 17.1612 22.0073 17.3525 22.1987L20.4174 25.3195C20.6281 25.5305 20.8779 25.636 21.1667 25.636C21.4554 25.636 21.7052 25.5305 21.9159 25.3195Z" fill="#161616"/>
</svg>
