<svg width="32" height="32" viewBox="0 0 32 32" fill="none" xmlns="http://www.w3.org/2000/svg">
<path d="M4 26.9076V12.7536C4 12.2957 4.1024 11.862 4.3072 11.4524C4.51227 11.0425 4.79547 10.7051 5.1568 10.44L14.2648 3.5784C14.7701 3.1928 15.3477 3 15.9976 3C16.6475 3 17.2267 3.1928 17.7352 3.5784L26.8432 10.44C27.2045 10.7051 27.4877 11.0425 27.6928 11.4524C27.8976 11.862 28 12.2957 28 12.7536V26.9076C28 27.562 27.7636 28.1256 27.2908 28.5984C26.818 29.0712 26.2544 29.3076 25.6 29.3076H20.4924C20.0825 29.3076 19.7391 29.1689 19.462 28.8916C19.1847 28.6145 19.046 28.2711 19.046 27.8612V20.046C19.046 19.6364 18.9075 19.2929 18.6304 19.0156C18.3533 18.7385 18.0099 18.6 17.6 18.6H14.4C13.9901 18.6 13.6467 18.7385 13.3696 19.0156C13.0925 19.2929 12.954 19.6364 12.954 20.046V27.8612C12.954 28.2711 12.8153 28.6145 12.538 28.8916C12.2609 29.1689 11.9175 29.3076 11.5076 29.3076H6.4C5.7456 29.3076 5.182 29.0712 4.7092 28.5984C4.2364 28.1256 4 27.562 4 26.9076Z" fill="white"/>
</svg>
