<svg width="32" height="32" viewBox="0 0 32 32" fill="none" xmlns="http://www.w3.org/2000/svg">
<path d="M8 24.923H12.4617V18.205C12.4617 17.8637 12.5771 17.5774 12.808 17.3463C13.0391 17.1154 13.3253 17 13.6667 17H18.3333C18.6747 17 18.9609 17.1154 19.192 17.3463C19.4229 17.5774 19.5383 17.8637 19.5383 18.205V24.923H24V13.128C24 13.0598 23.985 12.9979 23.955 12.9423C23.9252 12.8868 23.8847 12.8376 23.8333 12.7947L16.2437 7.08967C16.1752 7.02989 16.094 7 16 7C15.906 7 15.8248 7.02989 15.7563 7.08967L8.16667 12.7947C8.11533 12.8376 8.07478 12.8868 8.045 12.9423C8.015 12.9979 8 13.0598 8 13.128V24.923ZM6 24.923V13.128C6 12.7464 6.08533 12.385 6.256 12.0437C6.42689 11.7021 6.66289 11.4209 6.964 11.2L14.554 5.482C14.9751 5.16067 15.4564 5 15.998 5C16.5396 5 17.0222 5.16067 17.446 5.482L25.036 11.2C25.3371 11.4209 25.5731 11.7021 25.744 12.0437C25.9147 12.385 26 12.7464 26 13.128V24.923C26 25.4683 25.803 25.938 25.409 26.332C25.015 26.726 24.5453 26.923 24 26.923H18.7437C18.4021 26.923 18.1159 26.8074 17.885 26.5763C17.6539 26.3454 17.5383 26.0592 17.5383 25.7177V19H14.4617V25.7177C14.4617 26.0592 14.3461 26.3454 14.115 26.5763C13.8841 26.8074 13.5979 26.923 13.2563 26.923H8C7.45467 26.923 6.985 26.726 6.591 26.332C6.197 25.938 6 25.4683 6 24.923Z" fill="white"/>
</svg>
