<svg width="40" height="40" viewBox="0 0 40 40" fill="none" xmlns="http://www.w3.org/2000/svg">
<path d="M16.7288 18.2366C15.8244 17.3324 15.3722 16.242 15.3722 14.9654C15.3722 13.689 15.8244 12.5986 16.7288 11.6942C17.6332 10.7898 18.7236 10.3376 20 10.3376C21.2764 10.3376 22.3668 10.7898 23.2712 11.6942C24.1756 12.5986 24.6278 13.689 24.6278 14.9654C24.6278 16.242 24.1756 17.3324 23.2712 18.2366C22.3668 19.141 21.2764 19.5932 20 19.5932C18.7236 19.5932 17.6332 19.141 16.7288 18.2366ZM10.0833 27.6538V26.723C10.0833 26.0755 10.2592 25.4759 10.6109 24.9241C10.9626 24.3723 11.4326 23.9481 12.021 23.6514C13.3278 23.0108 14.6462 22.5303 15.9761 22.2099C17.3061 21.8895 18.6473 21.7293 20 21.7293C21.3526 21.7293 22.6939 21.8895 24.0238 22.2099C25.3538 22.5303 26.6721 23.0108 27.9789 23.6514C28.5673 23.9481 29.0374 24.3723 29.3891 24.9241C29.7408 25.4759 29.9166 26.0755 29.9166 26.723V27.6538C29.9166 28.2113 29.7213 28.6856 29.3306 29.0765C28.9399 29.4672 28.4656 29.6626 27.9079 29.6626H12.0921C11.5343 29.6626 11.0601 29.4672 10.6694 29.0765C10.2787 28.6856 10.0833 28.2113 10.0833 27.6538ZM12.0666 27.6793H27.9333V26.723C27.9333 26.4552 27.8557 26.2073 27.7006 25.9792C27.5455 25.7513 27.3349 25.5654 27.0689 25.4212C25.9296 24.8602 24.7688 24.4351 23.5865 24.1459C22.4042 23.857 21.2087 23.7126 20 23.7126C18.7912 23.7126 17.5957 23.857 16.4135 24.1459C15.2312 24.4351 14.0704 24.8602 12.931 25.4212C12.6651 25.5654 12.4545 25.7513 12.2994 25.9792C12.1442 26.2073 12.0666 26.4552 12.0666 26.723V27.6793ZM21.8676 16.8331C22.3855 16.3152 22.6444 15.6926 22.6444 14.9654C22.6444 14.2382 22.3855 13.6157 21.8676 13.0978C21.3497 12.5799 20.7272 12.321 20 12.321C19.2728 12.321 18.6502 12.5799 18.1323 13.0978C17.6145 13.6157 17.3555 14.2382 17.3555 14.9654C17.3555 15.6926 17.6145 16.3152 18.1323 16.8331C18.6502 17.3509 19.2728 17.6099 20 17.6099C20.7272 17.6099 21.3497 17.3509 21.8676 16.8331Z" fill="#8C8989"/>
</svg>
