<svg width="40" height="40" viewBox="0 0 40 40" fill="none" xmlns="http://www.w3.org/2000/svg">
<path d="M16.7042 18.6292C15.7903 17.7154 15.3333 16.6167 15.3333 15.3334C15.3333 14.0501 15.7903 12.9515 16.7042 12.0376C17.618 11.1237 18.7167 10.6667 20 10.6667C21.2833 10.6667 22.3819 11.1237 23.2958 12.0376C24.2097 12.9515 24.6667 14.0501 24.6667 15.3334C24.6667 16.6167 24.2097 17.7154 23.2958 18.6292C22.3819 19.5431 21.2833 20.0001 20 20.0001C18.7167 20.0001 17.618 19.5431 16.7042 18.6292ZM10.6667 29.3334V26.0667C10.6667 25.4056 10.8368 24.798 11.1771 24.2438C11.5174 23.6897 11.9694 23.2667 12.5333 22.9751C13.7389 22.3723 14.9639 21.9202 16.2083 21.6188C17.4528 21.3174 18.7167 21.1667 20 21.1667C21.2833 21.1667 22.5472 21.3174 23.7917 21.6188C25.0361 21.9202 26.2611 22.3723 27.4667 22.9751C28.0305 23.2667 28.4826 23.6897 28.8229 24.2438C29.1632 24.798 29.3333 25.4056 29.3333 26.0667V29.3334H10.6667Z" fill="#161616"/>
</svg>
