<svg width="40" height="40" viewBox="0 0 40 40" fill="none" xmlns="http://www.w3.org/2000/svg">
<path d="M20 22.6408L22.0709 23.904C22.2624 24.0252 22.4557 24.0184 22.6507 23.8836C22.8459 23.7491 22.9182 23.5666 22.8674 23.3362L22.3176 20.967L24.1665 19.3695C24.346 19.2095 24.3987 19.0211 24.3246 18.8042C24.2505 18.5874 24.0923 18.4693 23.85 18.4499L21.4336 18.2457L20.4801 16.0223C20.3905 15.8114 20.2305 15.7059 20 15.7059C19.7696 15.7059 19.6096 15.8114 19.52 16.0223L18.5665 18.2457L16.15 18.4499C15.9078 18.4693 15.7496 18.5874 15.6755 18.8042C15.6014 19.0211 15.6541 19.2095 15.8336 19.3695L17.6825 20.967L17.1327 23.3362C17.0819 23.5666 17.1541 23.7491 17.3494 23.8836C17.5444 24.0184 17.7377 24.0252 17.9292 23.904L20 22.6408ZM16.3385 28.7501H13.3591C12.7773 28.7501 12.2803 28.5441 11.8681 28.132C11.456 27.7198 11.25 27.2228 11.25 26.641V23.6617L9.08266 21.4762C8.88374 21.2654 8.73344 21.0322 8.63174 20.7765C8.53005 20.5206 8.4792 20.2618 8.4792 20.0001C8.4792 19.7384 8.53005 19.4796 8.63174 19.2237C8.73344 18.968 8.88374 18.7347 9.08266 18.524L11.25 16.3385V13.3591C11.25 12.7773 11.456 12.2803 11.8681 11.8681C12.2803 11.4561 12.7773 11.2501 13.3591 11.2501H16.3385L18.5239 9.08271C18.7347 8.88379 18.9679 8.73348 19.2236 8.63179C19.4795 8.53009 19.7383 8.47925 20 8.47925C20.2618 8.47925 20.5206 8.53009 20.7765 8.63179C21.0321 8.73348 21.2654 8.88379 21.4762 9.08271L23.6616 11.2501H26.641C27.2228 11.2501 27.7198 11.4561 28.132 11.8681C28.544 12.2803 28.75 12.7773 28.75 13.3591V16.3385L30.9174 18.524C31.1163 18.7347 31.2666 18.968 31.3683 19.2237C31.47 19.4796 31.5209 19.7384 31.5209 20.0001C31.5209 20.2618 31.47 20.5206 31.3683 20.7765C31.2666 21.0322 31.1163 21.2654 30.9174 21.4762L28.75 23.6617V26.641C28.75 27.2228 28.544 27.7198 28.132 28.132C27.7198 28.5441 27.2228 28.7501 26.641 28.7501H23.6616L21.4762 30.9175C21.2654 31.1164 21.0321 31.2667 20.7765 31.3684C20.5206 31.4701 20.2618 31.5209 20 31.5209C19.7383 31.5209 19.4795 31.4701 19.2236 31.3684C18.9679 31.2667 18.7347 31.1164 18.5239 30.9175L16.3385 28.7501ZM17.0834 27.0001L19.7419 29.6586C19.8092 29.7259 19.8952 29.7595 20 29.7595C20.1048 29.7595 20.1909 29.7259 20.2582 29.6586L22.9167 27.0001H26.641C26.7458 27.0001 26.8318 26.9664 26.8991 26.8992C26.9664 26.8319 27 26.7458 27 26.641V22.9167L29.6586 20.2582C29.7259 20.1909 29.7595 20.1049 29.7595 20.0001C29.7595 19.8953 29.7259 19.8092 29.6586 19.742L27 17.0834V13.3591C27 13.2543 26.9664 13.1683 26.8991 13.101C26.8318 13.0337 26.7458 13.0001 26.641 13.0001H22.9167L20.2582 10.3415C20.1909 10.2743 20.1048 10.2406 20 10.2406C19.8952 10.2406 19.8092 10.2743 19.7419 10.3415L17.0834 13.0001H13.3591C13.2543 13.0001 13.1682 13.0337 13.101 13.101C13.0337 13.1683 13 13.2543 13 13.3591V17.0834L10.3415 19.742C10.2742 19.8092 10.2406 19.8953 10.2406 20.0001C10.2406 20.1049 10.2742 20.1909 10.3415 20.2582L13 22.9167V26.641C13 26.7458 13.0337 26.8319 13.101 26.8992C13.1682 26.9664 13.2543 27.0001 13.3591 27.0001H17.0834Z" fill="#8C8989"/>
</svg>
