<svg width="40" height="40" viewBox="0 0 40 40" fill="none" xmlns="http://www.w3.org/2000/svg">
<path d="M11.8333 30.5C11.1917 30.5 10.6424 30.2715 10.1854 29.8146C9.72847 29.3576 9.5 28.8083 9.5 28.1667V11.8333C9.5 11.1917 9.72847 10.6424 10.1854 10.1854C10.6424 9.72847 11.1917 9.5 11.8333 9.5H28.1667C28.8083 9.5 29.3576 9.72847 29.8146 10.1854C30.2715 10.6424 30.5 11.1917 30.5 11.8333H21.1667C19.7861 11.8333 18.6632 12.266 17.7979 13.1313C16.9326 13.9965 16.5 15.1194 16.5 16.5V23.5C16.5 24.8806 16.9326 26.0035 17.7979 26.8688C18.6632 27.734 19.7861 28.1667 21.1667 28.1667H30.5C30.5 28.8083 30.2715 29.3576 29.8146 29.8146C29.3576 30.2715 28.8083 30.5 28.1667 30.5H11.8333ZM21.1667 25.8333C20.525 25.8333 19.9757 25.6049 19.5187 25.1479C19.0618 24.691 18.8333 24.1417 18.8333 23.5V16.5C18.8333 15.8583 19.0618 15.309 19.5187 14.8521C19.9757 14.3951 20.525 14.1667 21.1667 14.1667H29.3333C29.975 14.1667 30.5243 14.3951 30.9812 14.8521C31.4382 15.309 31.6667 15.8583 31.6667 16.5V23.5C31.6667 24.1417 31.4382 24.691 30.9812 25.1479C30.5243 25.6049 29.975 25.8333 29.3333 25.8333H21.1667ZM25.9208 21.2542C26.2514 20.9236 26.4167 20.5056 26.4167 20C26.4167 19.4944 26.2514 19.0764 25.9208 18.7458C25.5903 18.4153 25.1722 18.25 24.6667 18.25C24.1611 18.25 23.7431 18.4153 23.4125 18.7458C23.0819 19.0764 22.9167 19.4944 22.9167 20C22.9167 20.5056 23.0819 20.9236 23.4125 21.2542C23.7431 21.5847 24.1611 21.75 24.6667 21.75C25.1722 21.75 25.5903 21.5847 25.9208 21.2542Z" fill="#1F1F1F"/>
</svg>
