<svg width="40" height="40" viewBox="0 0 40 40" fill="none" xmlns="http://www.w3.org/2000/svg">
<path d="M11.8333 26.9999V28.1666V11.8333V26.9999ZM12.1924 29.9166C11.6106 29.9166 11.1136 29.7106 10.7014 29.2985C10.2893 28.8863 10.0833 28.3893 10.0833 27.8075V12.1923C10.0833 11.6105 10.2893 11.1135 10.7014 10.7013C11.1136 10.2893 11.6106 10.0833 12.1924 10.0833H27.8076C28.3894 10.0833 28.8864 10.2893 29.2986 10.7013C29.7106 11.1135 29.9166 11.6105 29.9166 12.1923V15.3671H28.1666V12.1923C28.1666 12.0875 28.133 12.0014 28.0657 11.9342C27.9985 11.8669 27.9124 11.8333 27.8076 11.8333H12.1924C12.0875 11.8333 12.0015 11.8669 11.9342 11.9342C11.867 12.0014 11.8333 12.0875 11.8333 12.1923V27.8075C11.8333 27.9123 11.867 27.9984 11.9342 28.0657C12.0015 28.1329 12.0875 28.1666 12.1924 28.1666H27.8076C27.9124 28.1666 27.9985 28.1329 28.0657 28.0657C28.133 27.9984 28.1666 27.9123 28.1666 27.8075V24.6328H29.9166V27.8075C29.9166 28.3893 29.7106 28.8863 29.2986 29.2985C28.8864 29.7106 28.3894 29.9166 27.8076 29.9166H12.1924ZM21.5257 25.2499C20.9439 25.2499 20.4469 25.0439 20.0347 24.6319C19.6227 24.2197 19.4166 23.7227 19.4166 23.1409V16.859C19.4166 16.2772 19.6227 15.7802 20.0347 15.368C20.4469 14.9559 20.9439 14.7499 21.5257 14.7499H28.9743C29.556 14.7499 30.053 14.9559 30.4653 15.368C30.8773 15.7802 31.0833 16.2772 31.0833 16.859V23.1409C31.0833 23.7227 30.8773 24.2197 30.4653 24.6319C30.053 25.0439 29.556 25.2499 28.9743 25.2499H21.5257ZM28.9743 23.4999C29.0791 23.4999 29.1651 23.4663 29.2324 23.399C29.2997 23.3317 29.3333 23.2457 29.3333 23.1409V16.859C29.3333 16.7542 29.2997 16.6681 29.2324 16.6008C29.1651 16.5336 29.0791 16.4999 28.9743 16.4999H21.5257C21.4209 16.4999 21.3348 16.5336 21.2676 16.6008C21.2003 16.6681 21.1666 16.7542 21.1666 16.859V23.1409C21.1666 23.2457 21.2003 23.3317 21.2676 23.399C21.3348 23.4663 21.4209 23.4999 21.5257 23.4999H28.9743ZM25.9062 21.2395C26.2465 20.8992 26.4166 20.486 26.4166 19.9999C26.4166 19.5138 26.2465 19.1006 25.9062 18.7603C25.566 18.4201 25.1528 18.2499 24.6666 18.2499C24.1805 18.2499 23.7673 18.4201 23.4271 18.7603C23.0868 19.1006 22.9166 19.5138 22.9166 19.9999C22.9166 20.486 23.0868 20.8992 23.4271 21.2395C23.7673 21.5798 24.1805 21.7499 24.6666 21.7499C25.1528 21.7499 25.566 21.5798 25.9062 21.2395Z" fill="#8C8989"/>
</svg>
